<svg width="167" height="20" viewBox="0 0 167 20" fill="none" xmlns="http://www.w3.org/2000/svg">
<path d="M5.632 1.336C7.088 1.336 8.32 1.584 9.328 2.08C10.336 2.56 11.104 3.248 11.632 4.144C12.16 5.024 12.424 6.072 12.424 7.288C12.424 8.008 12.312 8.736 12.088 9.472C11.88 10.192 11.536 10.848 11.056 11.44C10.592 12.032 9.96 12.512 9.16 12.88C8.376 13.232 7.408 13.408 6.256 13.408H3.76V19H0.28V1.336H5.632ZM6.232 10.024C6.76 10.024 7.2 9.936 7.552 9.76C7.904 9.568 8.176 9.336 8.368 9.064C8.576 8.776 8.72 8.48 8.8 8.176C8.896 7.872 8.944 7.608 8.944 7.384C8.944 7.208 8.912 6.976 8.848 6.688C8.8 6.384 8.688 6.08 8.512 5.776C8.336 5.472 8.064 5.216 7.696 5.008C7.344 4.8 6.864 4.696 6.256 4.696H3.76V10.024H6.232ZM14.9858 8.512H18.3458V19H14.9858V8.512ZM14.9138 4.792C14.9138 4.296 15.1058 3.888 15.4898 3.568C15.8898 3.248 16.3138 3.088 16.7618 3.088C17.2098 3.088 17.6178 3.248 17.9858 3.568C18.3698 3.888 18.5618 4.296 18.5618 4.792C18.5618 5.288 18.3698 5.696 17.9858 6.016C17.6178 6.32 17.2098 6.472 16.7618 6.472C16.3138 6.472 15.8898 6.32 15.4898 6.016C15.1058 5.696 14.9138 5.288 14.9138 4.792ZM30.7101 18.064C30.2461 18.432 29.6621 18.728 28.9581 18.952C28.2701 19.176 27.5901 19.288 26.9181 19.288C25.7181 19.288 24.6701 19.072 23.7741 18.64C22.8941 18.192 22.2061 17.56 21.7101 16.744C21.2301 15.912 20.9901 14.912 20.9901 13.744C20.9901 12.576 21.2541 11.584 21.7821 10.768C22.3101 9.936 22.9981 9.304 23.8461 8.872C24.7101 8.44 25.6141 8.224 26.5581 8.224C27.5021 8.224 28.3181 8.352 29.0061 8.608C29.7101 8.864 30.3101 9.2 30.8061 9.616L29.1741 11.776C28.9501 11.6 28.6381 11.424 28.2381 11.248C27.8541 11.056 27.3981 10.96 26.8701 10.96C26.4061 10.96 25.9821 11.08 25.5981 11.32C25.2141 11.56 24.9101 11.888 24.6861 12.304C24.4621 12.72 24.3501 13.2 24.3501 13.744C24.3501 14.256 24.4701 14.728 24.7101 15.16C24.9501 15.592 25.2781 15.936 25.6941 16.192C26.1261 16.432 26.6301 16.552 27.2061 16.552C27.5741 16.552 27.9101 16.504 28.2141 16.408C28.5341 16.296 28.8061 16.144 29.0301 15.952L30.7101 18.064ZM34.2745 3.904H37.6345V8.464H40.1785V11.08H37.6345V19H34.2745V11.08H32.6425V8.464H34.2745V3.904ZM46.1198 19.504C45.1758 19.504 44.3838 19.216 43.7438 18.64C43.1038 18.048 42.7678 17.288 42.7358 16.36V8.512H46.0958V15.112C46.1278 15.576 46.2478 15.952 46.4558 16.24C46.6638 16.512 47.0158 16.648 47.5118 16.648C48.0078 16.648 48.4318 16.48 48.7838 16.144C49.1518 15.808 49.4318 15.352 49.6238 14.776C49.8318 14.184 49.9358 13.52 49.9358 12.784V8.512H53.2958V19H50.2478L49.9838 17.08L50.0318 17.296C49.7918 17.728 49.4878 18.112 49.1198 18.448C48.7518 18.784 48.3118 19.04 47.7998 19.216C47.3038 19.408 46.7438 19.504 46.1198 19.504ZM59.7754 8.512L60.0874 11.392L60.0154 10.96C60.3194 10.336 60.7354 9.808 61.2634 9.376C61.7914 8.928 62.3114 8.584 62.8234 8.344C63.3514 8.104 63.7514 7.984 64.0234 7.984L63.8554 11.344C63.0714 11.248 62.3994 11.376 61.8394 11.728C61.2794 12.08 60.8474 12.544 60.5434 13.12C60.2394 13.696 60.0874 14.288 60.0874 14.896V19H56.7514V8.512H59.7754ZM71.2864 19.288C70.0064 19.288 68.9184 19.048 68.0224 18.568C67.1424 18.088 66.4704 17.424 66.0064 16.576C65.5424 15.728 65.3104 14.752 65.3104 13.648C65.3104 12.592 65.5824 11.64 66.1264 10.792C66.6704 9.944 67.3984 9.272 68.3104 8.776C69.2224 8.264 70.2384 8.008 71.3584 8.008C72.8624 8.008 74.0944 8.448 75.0544 9.328C76.0304 10.192 76.6624 11.448 76.9504 13.096L68.7904 15.688L68.0464 13.864L73.9504 11.872L73.2544 12.184C73.1264 11.768 72.8944 11.408 72.5584 11.104C72.2384 10.784 71.7504 10.624 71.0944 10.624C70.5984 10.624 70.1584 10.744 69.7744 10.984C69.4064 11.208 69.1184 11.536 68.9104 11.968C68.7184 12.384 68.6224 12.88 68.6224 13.456C68.6224 14.112 68.7424 14.664 68.9824 15.112C69.2224 15.544 69.5504 15.872 69.9664 16.096C70.3824 16.32 70.8464 16.432 71.3584 16.432C71.7264 16.432 72.0784 16.368 72.4144 16.24C72.7664 16.112 73.1104 15.944 73.4464 15.736L74.9344 18.232C74.3744 18.552 73.7664 18.808 73.1104 19C72.4704 19.192 71.8624 19.288 71.2864 19.288ZM93.1008 1.336C94.5568 1.336 95.7888 1.584 96.7968 2.08C97.8048 2.56 98.5728 3.248 99.1008 4.144C99.6288 5.024 99.8928 6.072 99.8928 7.288C99.8928 8.008 99.7808 8.736 99.5568 9.472C99.3488 10.192 99.0048 10.848 98.5248 11.44C98.0608 12.032 97.4288 12.512 96.6288 12.88C95.8448 13.232 94.8768 13.408 93.7248 13.408H91.2288V19H87.7488V1.336H93.1008ZM93.7008 10.024C94.2288 10.024 94.6688 9.936 95.0208 9.76C95.3728 9.568 95.6448 9.336 95.8368 9.064C96.0448 8.776 96.1888 8.48 96.2688 8.176C96.3648 7.872 96.4128 7.608 96.4128 7.384C96.4128 7.208 96.3808 6.976 96.3168 6.688C96.2688 6.384 96.1568 6.08 95.9808 5.776C95.8048 5.472 95.5328 5.216 95.1648 5.008C94.8128 4.8 94.3328 4.696 93.7248 4.696H91.2288V10.024H93.7008ZM107.615 19.288C106.335 19.288 105.247 19.048 104.351 18.568C103.471 18.088 102.799 17.424 102.335 16.576C101.871 15.728 101.639 14.752 101.639 13.648C101.639 12.592 101.911 11.64 102.455 10.792C102.999 9.944 103.727 9.272 104.639 8.776C105.551 8.264 106.567 8.008 107.687 8.008C109.191 8.008 110.423 8.448 111.383 9.328C112.359 10.192 112.991 11.448 113.279 13.096L105.119 15.688L104.375 13.864L110.279 11.872L109.583 12.184C109.455 11.768 109.223 11.408 108.887 11.104C108.567 10.784 108.079 10.624 107.423 10.624C106.927 10.624 106.487 10.744 106.103 10.984C105.735 11.208 105.447 11.536 105.239 11.968C105.047 12.384 104.951 12.88 104.951 13.456C104.951 14.112 105.071 14.664 105.311 15.112C105.551 15.544 105.879 15.872 106.295 16.096C106.711 16.32 107.175 16.432 107.687 16.432C108.055 16.432 108.407 16.368 108.743 16.24C109.095 16.112 109.439 15.944 109.775 15.736L111.263 18.232C110.703 18.552 110.095 18.808 109.439 19C108.799 19.192 108.191 19.288 107.615 19.288ZM118.744 8.512L119.056 11.392L118.984 10.96C119.288 10.336 119.704 9.808 120.232 9.376C120.76 8.928 121.28 8.584 121.792 8.344C122.32 8.104 122.72 7.984 122.992 7.984L122.824 11.344C122.04 11.248 121.368 11.376 120.808 11.728C120.248 12.08 119.816 12.544 119.512 13.12C119.208 13.696 119.056 14.288 119.056 14.896V19H115.72V8.512H118.744ZM126.572 19V11.44H124.796V8.464H126.572V4.816C126.572 3.44 126.964 2.32 127.748 1.456C128.548 0.576 129.7 0.136 131.204 0.136C131.652 0.136 132.148 0.208 132.692 0.352C133.252 0.479999 133.74 0.695999 134.156 0.999999L132.74 3.424C132.58 3.216 132.388 3.08 132.164 3.016C131.956 2.936 131.756 2.896 131.564 2.896C131.084 2.896 130.692 3.056 130.388 3.376C130.084 3.696 129.932 4.208 129.932 4.912V8.464H133.1V11.44H129.932V19H126.572ZM140.451 19.288C139.171 19.288 138.083 19.048 137.187 18.568C136.307 18.088 135.635 17.424 135.171 16.576C134.707 15.728 134.475 14.752 134.475 13.648C134.475 12.592 134.747 11.64 135.291 10.792C135.835 9.944 136.563 9.272 137.475 8.776C138.387 8.264 139.403 8.008 140.523 8.008C142.027 8.008 143.259 8.448 144.219 9.328C145.195 10.192 145.826 11.448 146.115 13.096L137.955 15.688L137.211 13.864L143.115 11.872L142.419 12.184C142.291 11.768 142.059 11.408 141.723 11.104C141.403 10.784 140.915 10.624 140.259 10.624C139.763 10.624 139.323 10.744 138.939 10.984C138.571 11.208 138.283 11.536 138.075 11.968C137.883 12.384 137.787 12.88 137.787 13.456C137.787 14.112 137.907 14.664 138.147 15.112C138.387 15.544 138.715 15.872 139.131 16.096C139.547 16.32 140.011 16.432 140.523 16.432C140.891 16.432 141.243 16.368 141.579 16.24C141.931 16.112 142.275 15.944 142.611 15.736L144.099 18.232C143.539 18.552 142.931 18.808 142.275 19C141.635 19.192 141.027 19.288 140.451 19.288ZM157.46 18.064C156.996 18.432 156.412 18.728 155.708 18.952C155.02 19.176 154.34 19.288 153.668 19.288C152.468 19.288 151.42 19.072 150.524 18.64C149.644 18.192 148.956 17.56 148.46 16.744C147.98 15.912 147.74 14.912 147.74 13.744C147.74 12.576 148.004 11.584 148.532 10.768C149.06 9.936 149.748 9.304 150.596 8.872C151.46 8.44 152.364 8.224 153.308 8.224C154.252 8.224 155.068 8.352 155.756 8.608C156.46 8.864 157.06 9.2 157.556 9.616L155.924 11.776C155.7 11.6 155.388 11.424 154.988 11.248C154.604 11.056 154.148 10.96 153.62 10.96C153.156 10.96 152.732 11.08 152.348 11.32C151.964 11.56 151.66 11.888 151.436 12.304C151.212 12.72 151.1 13.2 151.1 13.744C151.1 14.256 151.22 14.728 151.46 15.16C151.7 15.592 152.028 15.936 152.444 16.192C152.876 16.432 153.38 16.552 153.956 16.552C154.324 16.552 154.66 16.504 154.964 16.408C155.284 16.296 155.556 16.144 155.78 15.952L157.46 18.064ZM161.025 3.904H164.385V8.464H166.929V11.08H164.385V19H161.025V11.08H159.393V8.464H161.025V3.904Z" fill="#EEEEEE"/>
</svg>
